<svg width="116" height="36" viewBox="0 0 116 36" fill="none" xmlns="http://www.w3.org/2000/svg">
<rect x="80.3077" width="35.6923" height="35.6923" rx="5" fill="white"/>
<path d="M1.86523 24.0396V9.58643H9.94141V11.1196H3.91602V15.9634H8.97461V17.4771H3.91602V24.0396H1.86523ZM18.1152 22.6919C16.9629 23.7531 15.8529 24.2837 14.7852 24.2837C13.9062 24.2837 13.1771 24.0103 12.5977 23.4634C12.0182 22.91 11.7285 22.2134 11.7285 21.3735C11.7285 20.2147 12.2135 19.326 13.1836 18.7075C14.1602 18.0825 15.5599 17.77 17.3828 17.77H17.832V16.4907C17.832 15.2603 17.1908 14.645 15.9082 14.645C14.9121 14.645 13.8249 14.9575 12.6465 15.5825V13.9907C13.9421 13.4634 15.1628 13.1997 16.3086 13.1997C17.487 13.1997 18.3561 13.4699 18.916 14.0103C19.4759 14.5441 19.7559 15.3709 19.7559 16.4907V21.2954C19.7559 22.3957 20.0944 22.9458 20.7715 22.9458C20.8561 22.9458 20.9798 22.9328 21.1426 22.9067L21.2793 23.9712C20.8431 24.1795 20.3613 24.2837 19.834 24.2837C18.9355 24.2837 18.3626 23.7531 18.1152 22.6919ZM17.832 21.647V18.9028L17.2168 18.8833C16.1491 18.8833 15.2865 19.0819 14.6289 19.479C13.9779 19.8761 13.6523 20.4035 13.6523 21.061C13.6523 21.5233 13.8151 21.9139 14.1406 22.2329C14.4661 22.5519 14.8633 22.7114 15.332 22.7114C16.1328 22.7114 16.9661 22.3566 17.832 21.647ZM23.3105 23.6685V21.9009C24.5671 22.5259 25.6608 22.8384 26.5918 22.8384C27.1452 22.8384 27.6042 22.6886 27.9688 22.3892C28.3333 22.0897 28.5156 21.7153 28.5156 21.2661C28.5156 20.6086 28.0046 20.0649 26.9824 19.6353L25.8594 19.1567C24.1992 18.4666 23.3691 17.4738 23.3691 16.1782C23.3691 15.2537 23.6947 14.5278 24.3457 14.0005C25.0033 13.4666 25.9017 13.1997 27.041 13.1997C27.6335 13.1997 28.3659 13.2811 29.2383 13.4438L29.6387 13.522V15.1235C28.5645 14.8045 27.7083 14.645 27.0703 14.645C26.5104 14.645 26.0612 14.7687 25.7227 15.0161C25.3906 15.257 25.2246 15.5825 25.2246 15.9927C25.2246 16.5721 25.6934 17.0604 26.6309 17.4575L27.5586 17.8481C28.6068 18.2909 29.349 18.7596 29.7852 19.2544C30.2214 19.7427 30.4395 20.3547 30.4395 21.0903C30.4395 22.0213 30.0716 22.7863 29.3359 23.3853C28.6003 23.9842 27.6595 24.2837 26.5137 24.2837C25.6348 24.2837 24.5671 24.0786 23.3105 23.6685ZM33.8965 24.0396V8.61963H35.8203V15.4263C36.8359 13.9419 38.0794 13.1997 39.5508 13.1997C40.4753 13.1997 41.2077 13.4927 41.748 14.0786C42.2949 14.658 42.5684 15.4393 42.5684 16.4224V24.0396H40.6445V17.0474C40.6445 16.2596 40.5273 15.6997 40.293 15.3677C40.0651 15.0291 39.6842 14.8599 39.1504 14.8599C37.972 14.8599 36.862 15.6313 35.8203 17.1743V24.0396H33.8965ZM46.3184 24.0396V13.4341H48.2422V24.0396H46.3184ZM46.3184 11.5103V9.58643H48.2422V11.5103H46.3184ZM56.3184 24.2837C54.7624 24.2837 53.5286 23.7856 52.6172 22.7896C51.7122 21.7935 51.2598 20.4425 51.2598 18.7368C51.2598 17.0311 51.7122 15.6834 52.6172 14.6938C53.5286 13.6978 54.7624 13.1997 56.3184 13.1997C57.8743 13.1997 59.1048 13.6978 60.0098 14.6938C60.9212 15.6834 61.377 17.0311 61.377 18.7368C61.377 20.4425 60.9212 21.7935 60.0098 22.7896C59.1048 23.7856 57.8743 24.2837 56.3184 24.2837ZM56.3184 22.8384C57.2754 22.8384 58.0176 22.4803 58.5449 21.7642C59.0723 21.048 59.3359 20.0389 59.3359 18.7368C59.3359 17.4347 59.0723 16.4289 58.5449 15.7192C58.0176 15.0031 57.2754 14.645 56.3184 14.645C55.3613 14.645 54.6191 15.0031 54.0918 15.7192C53.571 16.4289 53.3105 17.4347 53.3105 18.7368C53.3105 20.0389 53.571 21.048 54.0918 21.7642C54.6191 22.4803 55.3613 22.8384 56.3184 22.8384ZM64.3848 24.0396V13.4341H66.3086V15.4263C67.3242 13.9419 68.5677 13.1997 70.0391 13.1997C70.9635 13.1997 71.696 13.4927 72.2363 14.0786C72.7832 14.658 73.0566 15.4393 73.0566 16.4224V24.0396H71.1328V17.0474C71.1328 16.2596 71.0156 15.6997 70.7812 15.3677C70.5534 15.0291 70.1725 14.8599 69.6387 14.8599C68.4603 14.8599 67.3503 15.6313 66.3086 17.1743V24.0396H64.3848Z" fill="white"/>
<path d="M95.3268 23.6489C93.5755 24.1502 92.0488 24.4009 90.7467 24.4009C88.4485 24.4009 86.6842 23.7498 85.4537 22.4478C84.2298 21.1392 83.6178 19.2609 83.6178 16.813C83.6178 14.4041 84.2395 12.5389 85.483 11.2173C86.733 9.88916 88.4876 9.2251 90.7467 9.2251C92.1985 9.2251 93.7187 9.4432 95.3073 9.87939V11.7739C93.3151 11.0968 91.7884 10.7583 90.7272 10.7583C89.1647 10.7583 87.9505 11.2889 87.0846 12.3501C86.2252 13.4048 85.7955 14.8957 85.7955 16.8228C85.7955 18.7303 86.2578 20.2147 87.1823 21.2759C88.1067 22.3371 89.4023 22.8677 91.069 22.8677C91.7526 22.8677 92.4915 22.7472 93.2858 22.5063V17.7993H95.3268V23.6489ZM98.9791 24.0396V13.4341H100.903V24.0396H98.9791ZM98.9791 11.5103V9.58643H100.903V11.5103H98.9791ZM109.487 24.0396C108.894 24.2023 108.38 24.2837 107.944 24.2837C106.967 24.2837 106.206 24.0037 105.659 23.4438C105.112 22.884 104.839 22.106 104.839 21.1099V14.8794H103.51V13.4341H104.839V11.5103L106.762 11.3247V13.4341H109.536V14.8794H106.762V20.7583C106.762 22.145 107.361 22.8384 108.559 22.8384C108.813 22.8384 109.122 22.7961 109.487 22.7114V24.0396Z" fill="#2E2E2E"/>
</svg>
