<svg width="114" height="35" viewBox="0 0 114 35" fill="none" xmlns="http://www.w3.org/2000/svg">
<rect x="78.75" width="35" height="35" rx="5" fill="#2E2E2E"/>
<path d="M1.86523 24V9.54688H9.94141V11.0801H3.91602V15.9238H8.97461V17.4375H3.91602V24H1.86523ZM18.1152 22.6523C16.9629 23.7135 15.8529 24.2441 14.7852 24.2441C13.9062 24.2441 13.1771 23.9707 12.5977 23.4238C12.0182 22.8704 11.7285 22.1738 11.7285 21.334C11.7285 20.1751 12.2135 19.2865 13.1836 18.668C14.1602 18.043 15.5599 17.7305 17.3828 17.7305H17.832V16.4512C17.832 15.2207 17.1908 14.6055 15.9082 14.6055C14.9121 14.6055 13.8249 14.918 12.6465 15.543V13.9512C13.9421 13.4238 15.1628 13.1602 16.3086 13.1602C17.487 13.1602 18.3561 13.4303 18.916 13.9707C19.4759 14.5046 19.7559 15.3314 19.7559 16.4512V21.2559C19.7559 22.3561 20.0944 22.9062 20.7715 22.9062C20.8561 22.9062 20.9798 22.8932 21.1426 22.8672L21.2793 23.9316C20.8431 24.14 20.3613 24.2441 19.834 24.2441C18.9355 24.2441 18.3626 23.7135 18.1152 22.6523ZM17.832 21.6074V18.8633L17.2168 18.8438C16.1491 18.8438 15.2865 19.0423 14.6289 19.4395C13.9779 19.8366 13.6523 20.3639 13.6523 21.0215C13.6523 21.4837 13.8151 21.8743 14.1406 22.1934C14.4661 22.5124 14.8633 22.6719 15.332 22.6719C16.1328 22.6719 16.9661 22.3171 17.832 21.6074ZM23.3105 23.6289V21.8613C24.5671 22.4863 25.6608 22.7988 26.5918 22.7988C27.1452 22.7988 27.6042 22.6491 27.9688 22.3496C28.3333 22.0501 28.5156 21.6758 28.5156 21.2266C28.5156 20.569 28.0046 20.0254 26.9824 19.5957L25.8594 19.1172C24.1992 18.4271 23.3691 17.4342 23.3691 16.1387C23.3691 15.2142 23.6947 14.4883 24.3457 13.9609C25.0033 13.4271 25.9017 13.1602 27.041 13.1602C27.6335 13.1602 28.3659 13.2415 29.2383 13.4043L29.6387 13.4824V15.084C28.5645 14.765 27.7083 14.6055 27.0703 14.6055C26.5104 14.6055 26.0612 14.7292 25.7227 14.9766C25.3906 15.2174 25.2246 15.543 25.2246 15.9531C25.2246 16.5326 25.6934 17.0208 26.6309 17.418L27.5586 17.8086C28.6068 18.2513 29.349 18.7201 29.7852 19.2148C30.2214 19.7031 30.4395 20.3151 30.4395 21.0508C30.4395 21.9818 30.0716 22.7467 29.3359 23.3457C28.6003 23.9447 27.6595 24.2441 26.5137 24.2441C25.6348 24.2441 24.5671 24.0391 23.3105 23.6289ZM33.8965 24V8.58008H35.8203V15.3867C36.8359 13.9023 38.0794 13.1602 39.5508 13.1602C40.4753 13.1602 41.2077 13.4531 41.748 14.0391C42.2949 14.6185 42.5684 15.3997 42.5684 16.3828V24H40.6445V17.0078C40.6445 16.2201 40.5273 15.6602 40.293 15.3281C40.0651 14.9896 39.6842 14.8203 39.1504 14.8203C37.972 14.8203 36.862 15.5918 35.8203 17.1348V24H33.8965ZM46.3184 24V13.3945H48.2422V24H46.3184ZM46.3184 11.4707V9.54688H48.2422V11.4707H46.3184ZM56.3184 24.2441C54.7624 24.2441 53.5286 23.7461 52.6172 22.75C51.7122 21.7539 51.2598 20.403 51.2598 18.6973C51.2598 16.9915 51.7122 15.6439 52.6172 14.6543C53.5286 13.6582 54.7624 13.1602 56.3184 13.1602C57.8743 13.1602 59.1048 13.6582 60.0098 14.6543C60.9212 15.6439 61.377 16.9915 61.377 18.6973C61.377 20.403 60.9212 21.7539 60.0098 22.75C59.1048 23.7461 57.8743 24.2441 56.3184 24.2441ZM56.3184 22.7988C57.2754 22.7988 58.0176 22.4408 58.5449 21.7246C59.0723 21.0085 59.3359 19.9993 59.3359 18.6973C59.3359 17.3952 59.0723 16.3893 58.5449 15.6797C58.0176 14.9635 57.2754 14.6055 56.3184 14.6055C55.3613 14.6055 54.6191 14.9635 54.0918 15.6797C53.571 16.3893 53.3105 17.3952 53.3105 18.6973C53.3105 19.9993 53.571 21.0085 54.0918 21.7246C54.6191 22.4408 55.3613 22.7988 56.3184 22.7988ZM64.3848 24V13.3945H66.3086V15.3867C67.3242 13.9023 68.5677 13.1602 70.0391 13.1602C70.9635 13.1602 71.696 13.4531 72.2363 14.0391C72.7832 14.6185 73.0566 15.3997 73.0566 16.3828V24H71.1328V17.0078C71.1328 16.2201 71.0156 15.6602 70.7812 15.3281C70.5534 14.9896 70.1725 14.8203 69.6387 14.8203C68.4603 14.8203 67.3503 15.5918 66.3086 17.1348V24H64.3848Z" fill="#2E2E2E"/>
<path d="M93.7246 23.6094C91.9733 24.1107 90.4466 24.3613 89.1445 24.3613C86.8464 24.3613 85.082 23.7103 83.8516 22.4082C82.6276 21.0996 82.0156 19.2214 82.0156 16.7734C82.0156 14.3646 82.6374 12.4993 83.8809 11.1777C85.1309 9.84961 86.8854 9.18555 89.1445 9.18555C90.5964 9.18555 92.1165 9.40365 93.7051 9.83984V11.7344C91.7129 11.0573 90.1862 10.7188 89.125 10.7188C87.5625 10.7188 86.3483 11.2493 85.4824 12.3105C84.623 13.3652 84.1934 14.8561 84.1934 16.7832C84.1934 18.6908 84.6556 20.1751 85.5801 21.2363C86.5046 22.2975 87.8001 22.8281 89.4668 22.8281C90.1504 22.8281 90.8893 22.7077 91.6836 22.4668V17.7598H93.7246V23.6094ZM97.377 24V13.3945H99.3008V24H97.377ZM97.377 11.4707V9.54688H99.3008V11.4707H97.377ZM107.885 24C107.292 24.1628 106.778 24.2441 106.342 24.2441C105.365 24.2441 104.604 23.9642 104.057 23.4043C103.51 22.8444 103.236 22.0664 103.236 21.0703V14.8398H101.908V13.3945H103.236V11.4707L105.16 11.2852V13.3945H107.934V14.8398H105.16V20.7188C105.16 22.1055 105.759 22.7988 106.957 22.7988C107.211 22.7988 107.52 22.7565 107.885 22.6719V24Z" fill="white"/>
</svg>
